<?xml version="1.0" encoding="UTF-8"?><svg id="Ebene_2" xmlns="http://www.w3.org/2000/svg" viewBox="0 0 131.87941 152.81695"><defs><style>.cls-1{fill:#1d1b1f;}</style></defs><g id="Ebene_1-2"><path class="cls-1" d="m130.08796,31.33638c-2.15505-2.27268-5.60933-2.2551-10.36454.06457-4.75759,2.3183-10.81118,6.96409-18.16294,13.94827l-1.02265.96628c-1.05628,1.00014-2.05149,1.95673-2.97573,2.86914-.43032.42591-.91057.91122-1.36117,1.3651-.36389-.7842-.76173-1.52604-1.24999-2.16176-.55415-.71976-1.24722-1.35403-2.08161-1.89143-1.57586-1.02452-3.20907-1.50881-4.89248-1.44827-1.68607.05704-3.55169.64276-5.59712,1.75691-.44999-.82281-.90449-1.51198-1.36371-2.07906-.46383-.5611-.94403-1.00558-1.45675-1.33881-.88125-.57222-1.92874-.90768-3.15411-1.00971-1.21874-.10073-2.57901-.00902-4.07667.26939.89042-1.26815,1.72199-2.47392,2.49942-3.61787.77511-1.14178,1.58117-2.36221,2.42732-3.66522l.81478-1.24819c5.87086-9.04421,9.51191-16.30249,10.92592-21.77868,1.41614-5.47622.63952-9.17991-2.33018-11.10304-3.84847-2.50224-8.79438-1.19798-14.84924,3.90281-6.04559,5.10394-13.21244,14.02894-21.4924,26.78171l-3.29805,5.07462c-1.11197,1.71662-3.25237,5.10946-6.40876,10.17476-1.34038,2.16426-2.37755,3.86706-3.11539,5.10235-1.81006,1.06521-3.38444,2.16666-4.71862,3.30758-1.33954,1.14455-2.42783,2.36542-3.27053,3.66366-1.23424,1.90447-2.10927,4.06745-2.63373,6.49522-.52442,2.43013-.79978,6.2041-.83359,11.32416.02327.27853.02551.67707.01623,1.20041-.00475,7.31257-.9862,12.47796-2.9408,15.49636l-.85747,1.31714-5.14901-3.34159L0,120.06915l50.42358,32.74781,11.65944-13.68986-2.7033-4.81766,6.21544-11.09669-6.60954-4.28859.45107-.69695c1.95709-3.01159,5.88243-6.0691,11.78124-9.1587,1.90435-1.00338,3.30126-1.7815,4.18349-2.32928,2.76925-1.62449,5.62315-4.09174,8.55685-7.39483,2.93587-3.30053,6.24315-7.77851,9.91683-13.43809,2.26576-.2399,4.1909-.84978,5.78256-1.82693,1.59378-.97743,3.05154-2.48698,4.37809-4.52428,2.48647-3.83215,4.09087-7.63498,4.94206-11.42113,9.47355-9.13116,16.09243-16.77228,19.65833-22.80661,3.76949-6.37582,4.25279-11.04049,1.45182-13.99097M57.732,123.74646l-4.73498,7.89967-39.92268-23.94571,5.64067-9.29364,39.01699,25.33968Zm-15.96011-68.45908c3.82572-1.82983,8.48806-3.07509,13.98702-3.72281,2.41946-.27633,4.71993-.31176,6.89886-.1183,2.17901.19819,3.5691.48967,4.17276.88243.93228.60248,1.37087,1.82667,1.32244,3.67576-.04369,1.85018-.62803,3.63263-1.74334,5.34695-1.41276,2.1818-3.80977,4.06834-7.18575,5.66566-3.37953,1.5962-8.59199,3.20457-15.64095,4.82329l.88048,2.44832,12.07103-.46557c.66563,3.33466.83124,6.35993.48675,9.0668-.34205,2.71155-1.19218,5.11173-2.54529,7.1955-.8135,1.25407-1.85126,2.54438-3.10719,3.86824-1.25353,1.32641-2.80279,2.74529-4.63841,4.25225l.87534,2.15343c2.63977-1.12005,4.88625-2.39677,6.7394-3.83276,1.85327-1.42891,3.39586-3.09429,4.63246-4.99856.51179-.78792.99543-1.66054,1.45234-2.61812.45573-.95733.92961-2.06482,1.41688-3.32475,3.11981,1.49196,5.81781,1.97701,8.10386,1.45334,2.29073-.52635,4.43155-2.12382,6.42003-4.7834,2.80768,1.36124,5.08521,2.06602,6.83541,2.11382,1.74996.0478,3.19373-.5466,4.32442-1.78544l2.50565,1.61996-1.85625,2.85314c-2.55815,3.94408-5.07935,7.24658-7.57241,9.91732-2.48602,2.66826-5.06178,4.81963-7.70874,6.46062-.56287.36239-1.60663.90379-3.12887,1.62628-6.49779,3.10005-11.48565,6.81445-14.95656,11.15228l-28.30621-18.38476.26933-.41484c2.52691-3.89492,3.65982-9.75227,3.39783-17.56921-.0046-.39874-.0088-.89636-.0145-1.49306-.15028-7.28438.88893-12.64216,3.11502-16.07449,1.8393-2.82405,4.6724-5.15737,8.49714-6.98931m27.09803-15.38351c-.3636.55714-1.20109,1.6941-2.51477,3.41424-.79823,1.12826-1.43288,2.00233-1.90158,2.62243-3.24593.32757-6.49509.74015-9.74737,1.23137-3.25577.49364-6.52586,1.08641-9.81274,1.78566.97449-1.80531,2.02745-3.65824,3.16504-5.55631,1.13185-1.90245,2.33583-3.82362,3.60164-5.77112l1.30939-2.01977c7.43519-11.4519,13.72462-19.74283,18.87326-24.8717,5.14415-5.12974,8.96669-6.8847,11.47039-5.25526,1.85294,1.20186,2.02606,3.98158.51655,8.34039-1.5119,4.35673-4.71066,10.29356-9.58711,17.80751l-5.37271,8.27257Zm9.59515,17.50619c-.26825,4.57336-.9248,8.93805-1.98604,13.10143-1.04974,4.15964-2.19519,7.18939-3.42711,9.09123-1.11761,1.71813-2.44957,2.78302-4.00256,3.1903-1.54847.40956-3.09084.11389-4.62102-.87579-1.5303-.99652-2.50526-2.51648-2.91887-4.56729-.41498-2.04843-.12823-4.23701.85315-6.5668,1.60844-1.25968,3.0222-2.51857,4.23096-3.77363,1.21103-1.25983,2.16773-2.422,2.85896-3.48845,1.74375-2.68764,2.66007-5.24307,2.74703-7.65636.08452-2.41773-.64761-5.01944-2.19643-7.80748,1.46151-.6327,2.72533-.97735,3.79103-1.04551,1.06597-.06604,1.99162.15638,2.77958.67029.79238.51053,1.33914,1.591,1.64907,3.24504.31229,1.65376.39389,3.81397.24225,6.48302m14.21749,4.14069c-.51569,5.56646-2.23242,10.59956-5.15449,15.09606-1.26579,1.94868-2.63339,3.06729-4.11022,3.3628-1.47664.29291-3.16488-.18003-5.06699-1.41431.75302-3.59659,1.55035-7.56161,2.38961-11.89621.83003-4.33562,1.74914-9.24648,2.74346-14.72903,1.183-1.01391,2.30427-1.60268,3.36824-1.76992,1.06425-.16489,2.11024.08423,3.12868.74278,2.31704,1.50833,3.21768,5.04372,2.70171,10.60783m.93657,10.74483c1.86617-5.31346,3.04467-10.6817,3.53059-16.10133.59101-.60264,1.42677-.91905,2.49548-.95045,1.07352-.02558,2.07411.25878,2.99931.86162,1.95104,1.26552,2.82479,4.0585,2.62146,8.3761-.20113,4.32228-1.53601,8.38306-4.00699,12.18379-1.41374,2.17946-2.94295,3.69263-4.5761,4.53694-1.6396.85363-3.01433.91443-4.12648.18719-1.16068-.74953-.8103-3.78145,1.06273-9.09385m29.94938-25.90515c-3.01325,4.28854-7.71393,9.5972-13.9199,15.81496-.02064-5.00867-1.49281-8.55603-4.52535-10.52314-.95568-.61812-2.00836-.98015-3.12042-1.18894l2.33488-2.21489c6.10965-5.80121,11.03151-9.79458,14.76365-11.98335,3.72958-2.18638,6.26731-2.56837,7.61716-1.14817,1.81729,1.91799.7696,5.66745-3.15002,11.24353"/></g></svg>